<svg t="1588065155494" class="icon" viewBox="0 0 1024 1024" version="1.1" xmlns="http://www.w3.org/2000/svg" p-id="2056" width="200" height="200"><path d="M248.36096 65.1264h66.49856V22.28224c0-11.12064 11.12064-22.24128 22.24128-22.24128h4.23936c11.12064 0 22.24128 11.12064 22.24128 22.24128V65.1264h143.40096V22.28224c0-11.12064 11.12064-22.24128 22.24128-22.24128h4.23936c11.12064 0 22.24128 11.12064 22.24128 22.24128V65.1264h143.40096V22.28224c0-11.12064 11.12064-22.24128 22.24128-22.24128h4.23936c11.12064 0 22.24128 11.12064 22.24128 22.24128V65.1264h66.49856c87.71584 0 159.49824 71.7824 159.49824 159.49824v639.87712c0 87.71584-71.7824 159.49824-159.49824 159.49824H248.36096c-87.71584 0-159.49824-71.7824-159.49824-159.49824V224.62464c0-87.73632 71.7824-159.49824 159.49824-159.49824z m38.74816 722.67776h488.48896c31.70304 0 31.76448 44.50304 0 44.50304H287.10912c-31.70304 0-31.76448-44.50304 0-44.50304z m0-176.98816h488.48896c31.70304 0 31.76448 44.50304 0 44.50304H287.10912c-31.70304-0.02048-31.76448-44.50304 0-44.50304z m0-177.00864h488.48896c31.70304 0 31.76448 44.50304 0 44.50304H287.10912c-31.70304 0-31.76448-44.50304 0-44.50304z m0-176.98816h488.48896c31.70304 0 31.76448 44.50304 0 44.50304H287.10912c-31.70304 0-31.76448-44.50304 0-44.50304z m-38.74816-147.21024c-63.24224 0-114.9952 51.75296-114.9952 114.9952v639.87712c0 63.24224 51.75296 114.9952 114.9952 114.9952h565.98528c63.24224 0 114.9952-51.75296 114.9952-114.9952V224.62464c0-63.24224-51.75296-114.9952-114.9952-114.9952H248.36096v-0.02048z" p-id="2057"></path></svg>