<svg t="1588065384504" class="icon" viewBox="0 0 1170 1024" version="1.1" xmlns="http://www.w3.org/2000/svg" p-id="5062" width="200" height="200"><path d="M918.747429 0H220.745143A205.897143 205.897143 0 0 0 15.36 205.312v574.902857a205.897143 205.897143 0 0 0 205.312 205.312h698.002286a205.897143 205.897143 0 0 0 205.312-205.312v-574.902857A205.897143 205.897143 0 0 0 918.747429 0zM220.745143 82.139429h698.002286a123.611429 123.611429 0 0 1 123.245714 123.172571V287.451429H97.499429V205.312a123.611429 123.611429 0 0 1 123.245714-123.172571zM918.674286 903.314286H220.745143a123.611429 123.611429 0 0 1-123.245714-123.172572V369.590857h944.493714v410.624a123.611429 123.611429 0 0 1-123.245714 123.172572zM261.851429 615.862857a41.179429 41.179429 0 0 0-41.033143 41.033143v82.139429c0 22.601143 18.432 41.106286 40.96 41.106285a41.179429 41.179429 0 0 0 41.106285-41.106285V656.969143a41.179429 41.179429 0 0 0-41.033142-40.96z m164.278857 0a41.179429 41.179429 0 0 0-41.106286 41.033143v82.139429c0 22.601143 18.505143 41.106286 41.106286 41.106285a41.179429 41.179429 0 0 0 41.033143-41.106285V656.969143a41.179429 41.179429 0 0 0-41.033143-40.96z m164.205714 0a41.179429 41.179429 0 0 0-41.033143 41.033143v82.139429c0 22.601143 18.432 41.106286 41.033143 41.106285a41.179429 41.179429 0 0 0 41.106286-41.106285V656.969143a41.179429 41.179429 0 0 0-41.106286-40.96z" p-id="5063"></path></svg>