<svg t="1588066081928" class="icon" viewBox="0 0 1024 1024" version="1.1" xmlns="http://www.w3.org/2000/svg" p-id="13521" width="200" height="200"><path d="M80 848c0 30.304 24.192 54.848 54.016 54.848h756c29.824 0 53.984-24.544 53.984-54.848V299.424h-864V848z m675.008-54.848h53.984a27.2 27.2 0 0 1 27.008 27.424 27.2 27.2 0 0 1-27.008 27.424h-53.984a27.2 27.2 0 0 1-27.008-27.424 27.2 27.2 0 0 1 27.008-27.424zM357.824 362.208a27.904 27.904 0 0 1 39.904 0L512 501.952l114.272-139.744a27.904 27.904 0 0 1 39.904 0 28.992 28.992 0 0 1 0 40.544l-117.376 143.52h98.208a27.2 27.2 0 0 1 27.008 27.456 27.2 27.2 0 0 1-27.008 27.424h-108V656h108a27.2 27.2 0 0 1 27.008 27.424 27.2 27.2 0 0 1-27.008 27.424h-108v109.728A27.2 27.2 0 0 1 512 848a27.2 27.2 0 0 1-27.008-27.424v-109.728h-108a27.2 27.2 0 0 1-26.976-27.424 27.2 27.2 0 0 1 26.976-27.424h108v-54.848h-108a27.2 27.2 0 0 1-26.976-27.424 27.2 27.2 0 0 1 26.976-27.424h98.208l-117.376-143.552a28.992 28.992 0 0 1 0-40.544z m-196.8 19.52h107.968a27.2 27.2 0 0 1 27.008 27.424 27.2 27.2 0 0 1-27.008 27.424H160.992a27.2 27.2 0 0 1-26.976-27.424 27.2 27.2 0 0 1 26.976-27.424z m742.464-246.88H120.512c-22.4 0-40.512 18.432-40.512 41.152v68.576h864V176c0-22.72-18.144-41.152-40.512-41.152z" p-id="13522"></path></svg>