<svg t="1588066215376" class="icon" viewBox="0 0 1024 1024" version="1.1" xmlns="http://www.w3.org/2000/svg" p-id="14436" width="200" height="200"><path d="M997.888 415.744l-1.536-1.536a74.752 74.752 0 0 0-53.248-22.016h-9.728l-0.512-4.608c-8.704-97.792-51.712-189.952-121.344-259.072-79.36-78.848-184.832-122.88-296.448-122.88-112.128 0-217.6 43.52-296.448 122.88-69.632 69.632-112.64 161.792-121.344 259.072l-0.512 4.608h-16.384c-19.968 0-38.912 7.68-53.248 22.016a74.752 74.752 0 0 0-22.016 53.248v225.28c0 54.272 27.648 99.84 81.92 134.656 62.464 39.936 148.48 56.32 203.264 57.856h179.2l1.024 3.584c6.656 22.528 21.504 41.984 41.984 53.76l0.512 0.512c14.336 8.192 30.208 12.288 46.08 12.288 8.192 0 15.872-1.024 24.064-3.072 23.552-6.144 43.008-20.992 55.296-41.984l0.512-1.024c12.288-21.504 15.36-46.08 9.216-69.632-6.144-22.528-19.968-41.472-39.424-53.76l-0.512 1.024-3.584-3.072c-13.824-7.68-29.696-12.288-45.568-12.288-8.192 0-15.872 1.024-23.552 3.072-23.552 6.144-43.008 20.992-55.296 41.984l-0.512 1.024c-3.584 6.656-6.656 13.312-8.704 20.48l-1.024 3.584H291.84c-48.64-1.536-125.44-15.36-180.736-51.2-40.448-26.112-61.952-59.904-61.952-98.304v-225.28c0-8.192 3.584-16.384 9.216-22.528 6.144-6.144 14.336-9.216 22.528-9.216h73.216c8.192 0 16.384 3.584 22.528 9.216l1.536 1.536c5.12 6.144 8.192 13.312 8.192 21.504v228.352c0 11.776 9.728 22.016 22.016 22.016 11.776 0 22.016-9.728 22.016-22.016v-228.352c0-18.944-7.168-37.376-20.992-51.712-0.512-0.512-0.512-1.024-1.536-1.536a74.752 74.752 0 0 0-53.248-22.016h-13.312l0.512-5.632c8.704-85.504 47.104-166.4 108.032-227.328 71.168-70.656 165.376-110.08 265.728-110.08s195.072 38.912 265.728 110.08c61.44 60.928 99.84 141.824 108.544 227.328l0.512 5.632h-19.968c-19.968 0-38.912 7.68-53.248 22.016a74.752 74.752 0 0 0-22.016 53.248V720.384c0 18.944 7.168 37.376 20.48 51.712l1.536 1.536c14.336 14.336 33.28 22.528 53.248 22.528h73.216c18.944 0 36.352-7.168 50.688-19.456l2.56-2.56c14.336-14.336 22.528-33.28 22.528-53.248v-252.928c-0.512-19.968-7.68-38.4-21.504-52.224z m-486.912 446.464c0-8.192 2.56-15.872 6.144-23.04l1.536-2.56c6.656-9.728 16.384-16.896 28.16-19.968 4.096-1.024 8.704-1.536 12.8-1.536 7.68 0 15.36 2.048 22.528 5.632h1.024c0.512 0.512 1.536 1.024 2.56 1.536 10.752 6.656 17.92 16.896 21.504 28.672 3.072 11.776 2.048 24.064-3.584 34.816v1.024c-0.512 1.024-1.024 1.536-1.536 2.56-6.656 10.752-16.896 17.92-28.672 21.504-4.096 1.024-8.704 1.536-12.8 1.536-7.68 0-15.36-2.048-22.528-5.632l-0.512-0.512c-1.024-0.512-1.536-1.024-2.56-1.536h-1.024c-10.24-6.656-17.408-16.896-20.992-28.672-1.024-3.584-1.536-7.68-1.536-11.776v-2.048z m464.384-141.824c0 8.192-3.584 16.384-9.216 22.528l-3.584 3.584-0.512-0.512c-5.632 4.096-11.776 6.144-18.432 6.144H870.4c-8.192 0-16.384-3.584-22.528-9.728l-8.192-8.704h2.048c-2.048-4.096-3.072-9.216-3.072-13.824v-252.928c0-8.192 3.584-16.384 9.216-22.528 6.144-6.144 14.336-9.216 22.528-9.216h73.216c8.192 0 16.384 3.584 22.528 9.216l1.536 1.536c5.12 6.144 8.192 13.312 8.192 21.504V720.384z" p-id="14437"></path></svg>