<svg t="1586255510712" class="icon" viewBox="0 0 1024 1024" version="1.1" xmlns="http://www.w3.org/2000/svg" p-id="7869" width="200" height="200"><path d="M712 64c14.8 0 28.9 5.9 39.5 16.5C762.1 91.1 768 105.2 768 120v592c0 14.8-5.9 28.9-16.5 39.5-10.6 10.6-24.7 16.5-39.5 16.5H120c-14.8 0-28.9-5.9-39.5-16.5C69.9 740.9 64 726.8 64 712V120c0-14.8 5.9-28.9 16.5-39.5C91.1 69.9 105.2 64 120 64h592m0-64H120C54 0 0 54 0 120v592c0 66 54 120 120 120h592c66 0 120-54 120-120V120C832 54 778 0 712 0z" fill="" p-id="7870"></path><path d="M872 1024H344c-83.8 0-152-68.2-152-152v-69.2h64V872c0 48.5 39.5 88 88 88h528c48.5 0 88-39.5 88-88V344c0-48.5-39.5-88-88-88h-62.4v-64H872c83.8 0 152 68.2 152 152v528c0 83.8-68.2 152-152 152zM543 320.1H291c-17.6 0-32-14.4-32-32s14.4-32 32-32h252c17.6 0 32 14.4 32 32s-14.4 32-32 32z" fill="" p-id="7871"></path><path d="M543 514.7H291c-17.6 0-32-14.4-32-32s14.4-32 32-32h252c17.6 0 32 14.4 32 32s-14.4 32-32 32z" fill="" p-id="7872"></path></svg>